Coordinates
nRows=107
nColumns=2
inDegrees=yes
endheader
time	ankle_angle_r	
3.57863	 -5.004883	
3.6502	 -5.039614	
3.72177	 -5.010613	
3.79335	 -5.047278	
3.86492	 -5.041547	
3.93649	 -4.995979	
4.00806	 -5.044096	
4.07964	 -5.026913	
4.15121	 -5.043680	
4.22278	 -5.004883	
4.29435	 -5.028006	
4.36593	 -5.035400	
4.4375	 -4.974002	
4.50907	 -5.012123	
4.58065	 -4.920362	
4.65222	 -4.984412	
4.72379	 -4.959106	
4.79536	 -4.965514	
4.86694	 -4.952907	
4.93851	 -4.989624	
5.01008	 -5.004883	
5.08165	 -4.968790	
5.15323	 -4.933957	
5.2248	 -4.999723	
5.29637	 -4.948799	
5.36794	 -4.968594	
5.43952	 -4.974365	
5.51109	 -5.018091	
5.58266	 -4.996644	
5.65423	 -4.951671	
5.72581	 -4.955403	
5.79738	 -4.943848	
5.86895	 -4.943848	
5.94052	 -4.885892	
6.0121	 -4.931460	
6.08367	 -4.943848	
6.15524	 -4.928589	
6.22681	 -5.017894	
6.29839	 -4.961145	
6.36996	 -5.045166	
6.44153	 -5.020142	
6.5131	 -4.986794	
6.58468	 -5.008504	
6.65625	 -5.034401	
6.72782	 -5.049868	
6.7994	 -5.004883	
6.87097	 -5.050659	
6.94254	 -5.065918	
7.01411	 -5.004883	
7.08569	 -5.035151	
7.15726	 -5.004883	
7.22883	 -5.034735	
7.3004	 -5.005756	
7.37198	 -4.944929	
7.44355	 -5.032822	
7.51512	 -4.930086	
7.58669	 -4.976070	
7.65827	 -4.945761	
7.72984	 -4.941726	
7.80141	 -5.037730	
7.87298	 -4.992161	
7.94456	 -5.004883	
8.01613	 -5.017188	
8.0877	 -5.050659	
8.15927	 -5.011621	
8.23085	 -4.993201	
8.30242	 -5.035400	
8.37399	 -5.020142	
8.44556	 -5.061717	
8.51714	 -4.978775	
8.58871	 -5.030783	
8.66028	 -5.075569	
8.73185	 -4.999849	
8.80343	 -4.959106	
8.875	 -4.943848	
8.94657	 -4.993567	
9.01815	 -4.949713	
9.08972	 -4.910219	
9.16129	 -4.998601	
9.23286	 -4.976645	
9.30444	 -4.967668	
9.37601	 -4.911883	
9.44758	 -5.028286	
9.51915	 -4.996946	
9.59073	 -4.951577	
9.6623	 -5.020142	
9.73387	 -4.936535	
9.80544	 -4.982519	
9.87702	 -4.952209	
9.94859	 -4.915211	
10.0202	 -4.989624	
10.0917	 -4.959106	
10.1633	 -5.004883	
10.2349	 -4.903928	
10.3065	 -4.991312	
10.378	 -5.029960	
10.4496	 -4.999650	
10.5212	 -4.989439	
10.5927	 -4.999258	
10.6643	 -5.040009	
10.7359	 -4.994025	
10.8075	 -5.004883	
10.879	 -5.020142	
10.9506	 -5.062141	
11.0222	 -5.035400	
11.0937	 -5.001522	
11.1653	 -5.053812	
